<mxfile host="Electron" modified="2024-02-04T18:39:20.979Z" agent="Mozilla/5.0 (X11; Linux x86_64) AppleWebKit/537.36 (KHTML, like Gecko) draw.io/22.1.21 Chrome/120.0.6099.109 Electron/28.1.0 Safari/537.36" etag="PFtqXkzIuPgcxuUBrJXk" version="22.1.21" type="device">
  <diagram name="Page-1" id="ew7vi9b7o_5ddHdVxSJt">
    <mxGraphModel dx="989" dy="626" grid="1" gridSize="10" guides="1" tooltips="1" connect="1" arrows="1" fold="1" page="1" pageScale="1" pageWidth="850" pageHeight="1100" math="0" shadow="0">
      <root>
        <mxCell id="0" />
        <mxCell id="1" parent="0" />
        <mxCell id="ZW6nNcWDt0XmGfBWngsh-31" value="" style="rounded=1;whiteSpace=wrap;html=1;fontFamily=Helvetica;fontSize=11;fontColor=default;fillColor=none;strokeColor=#db918d;strokeWidth=4;glass=0;shadow=0;arcSize=4;" vertex="1" parent="1">
          <mxGeometry x="138.5" y="4" width="391" height="380" as="geometry" />
        </mxCell>
        <mxCell id="ZW6nNcWDt0XmGfBWngsh-32" value="" style="group;rounded=1;" vertex="1" connectable="0" parent="1">
          <mxGeometry x="160" y="20" width="348" height="348" as="geometry" />
        </mxCell>
        <mxCell id="ZW6nNcWDt0XmGfBWngsh-8" value="" style="sketch=0;outlineConnect=0;fontColor=#232F3E;gradientColor=none;fillColor=#D88F8C;strokeColor=none;dashed=0;verticalLabelPosition=bottom;verticalAlign=top;align=center;html=1;fontSize=12;fontStyle=0;aspect=fixed;pointerEvents=1;shape=mxgraph.aws4.medical_emergency;container=0;labelBackgroundColor=none;" vertex="1" parent="ZW6nNcWDt0XmGfBWngsh-32">
          <mxGeometry y="213" width="78" height="78" as="geometry" />
        </mxCell>
        <mxCell id="ZW6nNcWDt0XmGfBWngsh-9" value="" style="sketch=0;outlineConnect=0;fontColor=#232F3E;gradientColor=none;fillColor=#D88F8C;strokeColor=none;dashed=0;verticalLabelPosition=bottom;verticalAlign=top;align=center;html=1;fontSize=12;fontStyle=0;aspect=fixed;pointerEvents=1;shape=mxgraph.aws4.car;container=0;labelBackgroundColor=none;" vertex="1" parent="ZW6nNcWDt0XmGfBWngsh-32">
          <mxGeometry y="80" width="78" height="78" as="geometry" />
        </mxCell>
        <mxCell id="ZW6nNcWDt0XmGfBWngsh-17" value="" style="edgeStyle=orthogonalEdgeStyle;rounded=0;orthogonalLoop=1;jettySize=auto;html=1;curved=1;endArrow=none;endFill=0;strokeColor=#D88F8C;strokeWidth=4;exitX=0;exitY=0.5;exitDx=0;exitDy=0;labelBackgroundColor=none;" edge="1" parent="ZW6nNcWDt0XmGfBWngsh-32" source="ZW6nNcWDt0XmGfBWngsh-27" target="ZW6nNcWDt0XmGfBWngsh-9">
          <mxGeometry relative="1" as="geometry" />
        </mxCell>
        <mxCell id="ZW6nNcWDt0XmGfBWngsh-24" style="edgeStyle=orthogonalEdgeStyle;shape=connector;curved=1;rounded=0;orthogonalLoop=1;jettySize=auto;html=1;exitX=0;exitY=0.5;exitDx=0;exitDy=0;labelBackgroundColor=none;strokeColor=#D88F8C;strokeWidth=4;align=center;verticalAlign=middle;fontFamily=Helvetica;fontSize=11;fontColor=default;endArrow=none;endFill=0;" edge="1" parent="ZW6nNcWDt0XmGfBWngsh-32" source="ZW6nNcWDt0XmGfBWngsh-27" target="ZW6nNcWDt0XmGfBWngsh-8">
          <mxGeometry relative="1" as="geometry" />
        </mxCell>
        <mxCell id="ZW6nNcWDt0XmGfBWngsh-10" value="" style="sketch=0;outlineConnect=0;fontColor=#232F3E;gradientColor=none;fillColor=#D88F8C;strokeColor=none;dashed=0;verticalLabelPosition=bottom;verticalAlign=top;align=center;html=1;fontSize=12;fontStyle=0;aspect=fixed;pointerEvents=1;shape=mxgraph.aws4.iot_thing_temperature_humidity_sensor;container=0;labelBackgroundColor=none;" vertex="1" parent="ZW6nNcWDt0XmGfBWngsh-32">
          <mxGeometry x="135" y="270" width="78" height="78" as="geometry" />
        </mxCell>
        <mxCell id="ZW6nNcWDt0XmGfBWngsh-13" value="" style="sketch=0;outlineConnect=0;fontColor=#232F3E;gradientColor=none;fillColor=#D88F8C;strokeColor=none;dashed=0;verticalLabelPosition=bottom;verticalAlign=top;align=center;html=1;fontSize=12;fontStyle=0;aspect=fixed;pointerEvents=1;shape=mxgraph.aws4.coffee_pot;container=0;labelBackgroundColor=none;" vertex="1" parent="ZW6nNcWDt0XmGfBWngsh-32">
          <mxGeometry x="135" width="78" height="78" as="geometry" />
        </mxCell>
        <mxCell id="ZW6nNcWDt0XmGfBWngsh-11" value="" style="sketch=0;outlineConnect=0;fontColor=#232F3E;gradientColor=none;fillColor=#D88F8C;strokeColor=none;dashed=0;verticalLabelPosition=bottom;verticalAlign=top;align=center;html=1;fontSize=12;fontStyle=0;aspect=fixed;pointerEvents=1;shape=mxgraph.aws4.utility;container=0;labelBackgroundColor=none;" vertex="1" parent="ZW6nNcWDt0XmGfBWngsh-32">
          <mxGeometry x="270" y="213" width="78" height="78" as="geometry" />
        </mxCell>
        <mxCell id="ZW6nNcWDt0XmGfBWngsh-12" value="" style="sketch=0;outlineConnect=0;fontColor=#232F3E;gradientColor=none;fillColor=#D88F8C;strokeColor=none;dashed=0;verticalLabelPosition=bottom;verticalAlign=top;align=center;html=1;fontSize=12;fontStyle=0;aspect=fixed;pointerEvents=1;shape=mxgraph.aws4.door_lock;container=0;labelBackgroundColor=none;" vertex="1" parent="ZW6nNcWDt0XmGfBWngsh-32">
          <mxGeometry x="270" y="80" width="78" height="78" as="geometry" />
        </mxCell>
        <mxCell id="ZW6nNcWDt0XmGfBWngsh-29" value="" style="group;labelBackgroundColor=none;" vertex="1" connectable="0" parent="ZW6nNcWDt0XmGfBWngsh-32">
          <mxGeometry x="112.5" y="120" width="146" height="126" as="geometry" />
        </mxCell>
        <mxCell id="ZW6nNcWDt0XmGfBWngsh-27" value="" style="rounded=1;whiteSpace=wrap;html=1;fontFamily=Helvetica;fontSize=11;fontColor=default;fillColor=none;strokeWidth=4;strokeColor=#D88F8C;labelBackgroundColor=none;" vertex="1" parent="ZW6nNcWDt0XmGfBWngsh-29">
          <mxGeometry x="2.75" y="3" width="117.5" height="120" as="geometry" />
        </mxCell>
        <mxCell id="ZW6nNcWDt0XmGfBWngsh-28" value="" style="sketch=0;points=[[0,0,0],[0.25,0,0],[0.5,0,0],[0.75,0,0],[1,0,0],[0,1,0],[0.25,1,0],[0.5,1,0],[0.75,1,0],[1,1,0],[0,0.25,0],[0,0.5,0],[0,0.75,0],[1,0.25,0],[1,0.5,0],[1,0.75,0]];outlineConnect=0;fontColor=#232F3E;fillColor=none;strokeColor=#D88F8C;verticalLabelPosition=bottom;verticalAlign=top;align=center;html=1;fontSize=12;fontStyle=0;aspect=fixed;shape=mxgraph.aws4.resourceIcon;resIcon=mxgraph.aws4.internet_of_things;container=0;strokeWidth=25;perimeterSpacing=0;shadow=0;labelBackgroundColor=none;" vertex="1" parent="ZW6nNcWDt0XmGfBWngsh-29">
          <mxGeometry x="-5.75" y="-4.25" width="134.5" height="134.5" as="geometry" />
        </mxCell>
        <mxCell id="ZW6nNcWDt0XmGfBWngsh-26" style="edgeStyle=orthogonalEdgeStyle;shape=connector;curved=1;rounded=0;orthogonalLoop=1;jettySize=auto;html=1;labelBackgroundColor=none;strokeColor=#D88F8C;strokeWidth=4;align=center;verticalAlign=middle;fontFamily=Helvetica;fontSize=11;fontColor=default;endArrow=none;endFill=0;entryX=0.5;entryY=1;entryDx=0;entryDy=0;" edge="1" parent="ZW6nNcWDt0XmGfBWngsh-32" source="ZW6nNcWDt0XmGfBWngsh-10" target="ZW6nNcWDt0XmGfBWngsh-27">
          <mxGeometry relative="1" as="geometry" />
        </mxCell>
        <mxCell id="ZW6nNcWDt0XmGfBWngsh-25" style="edgeStyle=orthogonalEdgeStyle;shape=connector;curved=1;rounded=0;orthogonalLoop=1;jettySize=auto;html=1;labelBackgroundColor=none;strokeColor=#D88F8C;strokeWidth=4;align=center;verticalAlign=middle;fontFamily=Helvetica;fontSize=11;fontColor=default;endArrow=none;endFill=0;entryX=0.5;entryY=0;entryDx=0;entryDy=0;" edge="1" parent="ZW6nNcWDt0XmGfBWngsh-32" source="ZW6nNcWDt0XmGfBWngsh-13" target="ZW6nNcWDt0XmGfBWngsh-27">
          <mxGeometry relative="1" as="geometry" />
        </mxCell>
        <mxCell id="ZW6nNcWDt0XmGfBWngsh-21" style="edgeStyle=orthogonalEdgeStyle;shape=connector;curved=1;rounded=0;orthogonalLoop=1;jettySize=auto;html=1;exitX=1;exitY=0.5;exitDx=0;exitDy=0;labelBackgroundColor=none;strokeColor=#D88F8C;strokeWidth=4;align=center;verticalAlign=middle;fontFamily=Helvetica;fontSize=11;fontColor=default;endArrow=none;endFill=0;" edge="1" parent="ZW6nNcWDt0XmGfBWngsh-32" source="ZW6nNcWDt0XmGfBWngsh-27" target="ZW6nNcWDt0XmGfBWngsh-11">
          <mxGeometry relative="1" as="geometry" />
        </mxCell>
        <mxCell id="ZW6nNcWDt0XmGfBWngsh-20" style="edgeStyle=orthogonalEdgeStyle;shape=connector;curved=1;rounded=0;orthogonalLoop=1;jettySize=auto;html=1;exitX=1;exitY=0.5;exitDx=0;exitDy=0;labelBackgroundColor=none;strokeColor=#D88F8C;strokeWidth=4;align=center;verticalAlign=middle;fontFamily=Helvetica;fontSize=11;fontColor=default;endArrow=none;endFill=0;" edge="1" parent="ZW6nNcWDt0XmGfBWngsh-32" source="ZW6nNcWDt0XmGfBWngsh-27" target="ZW6nNcWDt0XmGfBWngsh-12">
          <mxGeometry relative="1" as="geometry" />
        </mxCell>
      </root>
    </mxGraphModel>
  </diagram>
</mxfile>
